<svg width="646" height="495" viewBox="0 0 646 495" fill="none" xmlns="http://www.w3.org/2000/svg">
<path opacity="0.1" d="M633.493 133.74C627.102 118.886 618.461 105.107 607.875 92.8867L252.366 89.3803L545.066 48.2455C526.157 40.713 506.026 36.7182 485.676 36.4595C457.676 14.0645 423.199 1.31202 387.374 0.099187C351.549 -1.11364 316.289 9.27796 286.841 29.7281C263.303 17.6166 237.21 11.3216 210.742 11.3699C131.752 11.3699 65.9338 66.1142 51.1704 138.703L633.493 133.74Z" fill="#FF4D29"/>
<path opacity="0.1" d="M645.994 194.622C646.012 174.936 642.252 155.429 634.918 137.161L18.7815 201.874C12.4503 213.372 7.60649 225.63 4.36664 238.351L195.178 266.807L0 287.558C5.87112 369.735 76.2756 434.626 162.281 434.626C205.575 434.626 244.917 418.183 274.065 391.368C303.304 418.691 343.026 435.495 386.784 435.495C451.715 435.495 507.754 398.503 533.849 345.019C586.206 328.393 626.876 286.646 640.796 234.417L399.505 196.972H645.969C645.982 196.189 645.994 195.405 645.994 194.622Z" fill="#FF4D29"/>
<path opacity="0.1" d="M17.1914 454.275C25.9124 454.275 32.9822 453.303 32.9822 452.103C32.9822 450.903 25.9124 449.93 17.1914 449.93C8.47032 449.93 1.40051 450.903 1.40051 452.103C1.40051 453.303 8.47032 454.275 17.1914 454.275Z" fill="#FF4D29"/>
<path opacity="0.1" d="M77.6822 460.413C86.4032 460.413 93.473 459.44 93.473 458.241C93.473 457.041 86.4032 456.068 77.6822 456.068C68.9611 456.068 61.8913 457.041 61.8913 458.241C61.8913 459.44 68.9611 460.413 77.6822 460.413Z" fill="#FF4D29"/>
<path opacity="0.1" d="M148.937 452.103C157.658 452.103 164.728 451.13 164.728 449.93C164.728 448.731 157.658 447.758 148.937 447.758C140.216 447.758 133.146 448.731 133.146 449.93C133.146 451.13 140.216 452.103 148.937 452.103Z" fill="#FF4D29"/>
<path opacity="0.1" d="M53.47 477.26C59.6713 477.26 64.6985 476.569 64.6985 475.718C64.6985 474.866 59.6713 474.176 53.47 474.176C47.2686 474.176 42.2415 474.866 42.2415 475.718C42.2415 476.569 47.2686 477.26 53.47 477.26Z" fill="#FF4D29"/>
<path opacity="0.1" d="M116.26 475.718C122.462 475.718 127.489 475.027 127.489 474.176C127.489 473.324 122.462 472.633 116.26 472.633C110.059 472.633 105.032 473.324 105.032 474.176C105.032 475.027 110.059 475.718 116.26 475.718Z" fill="#FF4D29"/>
<path d="M78.0247 457.751C78.0247 457.751 55.8734 385.101 81.4862 356.003C100.653 334.231 122.401 336.837 132.143 339.53C134.664 340.202 137.008 341.414 139.015 343.083C141.021 344.751 142.641 346.836 143.763 349.193C147.169 356.536 146.552 368.475 122.511 382.403C82.2568 405.724 79.7554 437.71 79.7554 437.71L78.0247 457.751Z" fill="#FF4D29"/>
<path d="M128.675 349.835C128.675 349.835 63.3836 370.262 78.0247 457.751" stroke="#565987" stroke-miterlimit="10"/>
<path d="M90.5436 357.16C90.5436 357.16 99.5338 363.218 96.6594 372.33" stroke="#565987" stroke-miterlimit="10"/>
<path d="M122.125 362.545C122.125 362.545 116.621 356.952 109.943 360.036" stroke="#565987" stroke-miterlimit="10"/>
<path d="M96.3169 390.694C96.3169 390.694 86.6662 385.799 84.171 391.918" stroke="#565987" stroke-miterlimit="10"/>
<path d="M72.4349 400.902C72.4349 400.902 79.682 400.326 79.8166 403.796" stroke="#565987" stroke-miterlimit="10"/>
<path d="M77.144 458.332C77.144 458.332 103.087 405.528 110.212 406.685C113.594 407.235 115.153 410.564 115.863 413.912C116.742 418.25 116.248 422.755 114.45 426.799C110.781 435.213 100.861 451.277 77.144 458.332Z" fill="#FF4D29"/>
<path d="M109.998 416.708C109.998 416.708 82.7705 456.215 77.511 457.947" stroke="#565987" stroke-miterlimit="10"/>
<path d="M112.505 422.87H106.151" stroke="#565987" stroke-miterlimit="10"/>
<path d="M104.891 437.324L94.9347 437.753" stroke="#565987" stroke-miterlimit="10"/>
<path d="M98.8304 425.765L99.9129 430.954" stroke="#565987" stroke-miterlimit="10"/>
<path d="M88.238 441.565L88.4337 446.283" stroke="#565987" stroke-miterlimit="10"/>
<path d="M77.8962 458.332C77.8962 458.332 51.9533 405.528 44.8284 406.685C41.4464 407.235 39.8869 410.564 39.1775 413.912C38.3052 418.239 38.8011 422.73 40.5963 426.762C44.2719 435.213 54.161 451.277 77.8962 458.332Z" fill="#FF4D29"/>
<path d="M45.0241 416.708C45.0241 416.708 72.2514 456.215 77.5109 457.947" stroke="#565987" stroke-miterlimit="10"/>
<path d="M42.5228 422.87H48.877" stroke="#565987" stroke-miterlimit="10"/>
<path d="M50.1308 437.324L60.0933 437.753" stroke="#565987" stroke-miterlimit="10"/>
<path d="M56.1976 425.765L55.1151 430.954" stroke="#565987" stroke-miterlimit="10"/>
<path d="M66.79 441.565L66.5943 446.283" stroke="#565987" stroke-miterlimit="10"/>
<path d="M122.437 470.663C123.145 470.088 123.661 469.311 123.917 468.436C124.031 467.996 123.99 467.531 123.802 467.117C123.614 466.704 123.29 466.368 122.884 466.165C121.936 465.798 120.92 466.459 120.156 467.12C119.392 467.781 118.505 468.546 117.502 468.405C118.014 467.933 118.395 467.337 118.61 466.675C118.824 466.012 118.864 465.306 118.725 464.623C118.683 464.34 118.564 464.073 118.382 463.852C117.857 463.289 116.902 463.534 116.273 463.975C114.267 465.382 113.71 468.105 113.698 470.559C113.588 469.659 113.575 468.75 113.661 467.848C113.661 466.942 113.404 465.933 112.64 465.449C112.167 465.189 111.632 465.062 111.092 465.082C110.187 465.082 109.19 465.137 108.573 465.798C107.808 466.618 108.004 467.989 108.671 468.895C109.414 469.733 110.295 470.439 111.276 470.981C112.011 471.43 112.638 472.036 113.111 472.756C113.165 472.858 113.21 472.964 113.245 473.074H118.89C120.177 472.437 121.371 471.626 122.437 470.663Z" fill="#FF4D29"/>
<path d="M23.5884 449.398C24.2964 448.823 24.8126 448.046 25.0684 447.171C25.1812 446.73 25.1402 446.264 24.9523 445.85C24.7643 445.436 24.4406 445.099 24.0349 444.894C23.0869 444.533 22.0778 445.194 21.3072 445.855C20.5366 446.516 19.6621 447.275 18.653 447.134C19.1664 446.663 19.5491 446.067 19.7635 445.405C19.9778 444.742 20.0167 444.034 19.8761 443.352C19.8303 443.07 19.7099 442.806 19.5275 442.587C19.0016 442.024 18.0475 442.263 17.4176 442.71C15.4117 444.117 14.8551 446.84 14.8429 449.294C14.7327 448.392 14.7204 447.481 14.8062 446.577C14.8062 445.671 14.5555 444.668 13.791 444.184C13.3157 443.924 12.779 443.797 12.2376 443.817C11.3386 443.78 10.3356 443.872 9.7179 444.533C8.95343 445.353 9.15525 446.724 9.81575 447.593C10.5584 448.437 11.442 449.145 12.4272 449.686C13.1643 450.132 13.7914 450.738 14.2619 451.46C14.3172 451.562 14.3642 451.669 14.4026 451.779H20.0474C21.3301 451.149 22.5214 450.349 23.5884 449.398Z" fill="#FF4D29"/>
<path d="M56.534 470.663C57.2414 470.088 57.7575 469.311 58.014 468.436C58.1276 467.996 58.0869 467.531 57.8988 467.117C57.7107 466.704 57.3865 466.368 56.9804 466.165C56.0325 465.798 55.0173 466.459 54.2528 467.12C53.4883 467.781 52.6016 468.546 51.5986 468.405C52.1105 467.933 52.4921 467.337 52.7064 466.675C52.9207 466.012 52.9604 465.306 52.8217 464.623C52.7796 464.34 52.6612 464.073 52.4792 463.852C51.9533 463.289 50.9992 463.534 50.3693 463.975C48.3633 465.382 47.8068 468.105 47.7946 470.559C47.6844 469.659 47.6721 468.75 47.7579 467.848C47.7579 466.942 47.5071 465.933 46.7427 465.449C46.2671 465.19 45.7306 465.063 45.1893 465.082C44.2903 465.082 43.2873 465.137 42.6696 465.798C41.9051 466.618 42.1008 467.989 42.7674 468.895C43.511 469.733 44.3921 470.439 45.3727 470.981C46.1081 471.43 46.7347 472.036 47.2075 472.756C47.2622 472.858 47.3073 472.964 47.342 473.074H52.9868C54.2742 472.437 55.4678 471.626 56.534 470.663Z" fill="#FF4D29"/>
<path d="M149.964 427.674C149.964 427.674 152.08 430.446 148.986 434.626C145.891 438.805 143.347 442.336 144.374 444.943C144.374 444.943 149.041 437.178 152.839 437.067C156.636 436.957 154.141 432.343 149.964 427.674Z" fill="#FF4D29"/>
<path opacity="0.1" d="M149.964 427.674C150.148 427.942 150.295 428.235 150.398 428.543C154.105 432.9 156.074 436.963 152.514 437.067C149.194 437.165 145.218 443.101 144.264 444.6C144.295 444.717 144.332 444.827 144.374 444.943C144.374 444.943 149.041 437.178 152.839 437.067C156.636 436.957 154.141 432.343 149.964 427.674Z" fill="black"/>
<path d="M153.897 431.205C153.897 432.178 153.787 432.967 153.652 432.967C153.517 432.967 153.407 432.178 153.407 431.205C153.407 430.232 153.548 430.691 153.683 430.691C153.817 430.691 153.897 430.232 153.897 431.205Z" fill="#FFD037"/>
<path d="M155.248 432.368C154.392 432.833 153.646 433.114 153.585 432.98C153.524 432.845 154.16 432.368 155.016 431.921C155.872 431.474 155.53 431.792 155.597 431.921C155.664 432.05 156.104 431.903 155.248 432.368Z" fill="#FFD037"/>
<path d="M138.785 427.674C138.785 427.674 136.669 430.446 139.763 434.626C142.858 438.805 145.408 442.336 144.374 444.943C144.374 444.943 139.708 437.178 135.91 437.067C132.112 436.957 134.632 432.343 138.785 427.674Z" fill="#FF4D29"/>
<path opacity="0.1" d="M138.785 427.674C138.601 427.942 138.457 428.234 138.356 428.543C134.65 432.9 132.675 436.963 136.234 437.067C139.555 437.165 143.536 443.101 144.491 444.6C144.454 444.717 144.417 444.827 144.374 444.943C144.374 444.943 139.708 437.178 135.91 437.067C132.112 436.957 134.632 432.343 138.785 427.674Z" fill="black"/>
<path d="M134.852 431.205C134.852 432.178 134.962 432.967 135.097 432.967C135.231 432.967 135.341 432.178 135.341 431.205C135.341 430.232 135.207 430.691 135.072 430.691C134.938 430.691 134.852 430.232 134.852 431.205Z" fill="#FFD037"/>
<path d="M133.501 432.368C134.357 432.833 135.103 433.114 135.17 432.98C135.237 432.845 134.589 432.368 133.739 431.921C132.889 431.474 133.219 431.792 133.128 431.921C133.036 432.05 132.651 431.903 133.501 432.368Z" fill="#FFD037"/>
<path d="M135.525 444.576C135.525 444.576 141.445 444.399 143.225 443.126C145.004 441.853 152.325 440.335 152.771 442.373C153.218 444.411 161.657 452.507 154.979 452.562C148.301 452.617 139.463 451.521 137.684 450.438C135.904 449.355 135.525 444.576 135.525 444.576Z" fill="#A8A8A8"/>
<path opacity="0.2" d="M155.101 451.852C148.423 451.907 139.58 450.812 137.8 449.729C136.442 448.902 135.904 445.941 135.727 444.57H135.525C135.525 444.57 135.904 449.349 137.684 450.432C139.463 451.515 148.301 452.611 154.979 452.556C156.912 452.556 157.572 451.852 157.535 450.836C157.26 451.46 156.532 451.84 155.101 451.852Z" fill="black"/>
<path opacity="0.1" d="M374.522 495C485.788 495 575.987 490.907 575.987 485.858C575.987 480.808 485.788 476.715 374.522 476.715C263.256 476.715 173.057 480.808 173.057 485.858C173.057 490.907 263.256 495 374.522 495Z" fill="#FF4D29"/>
<path d="M353.998 212.521C353.998 212.521 366.841 236.834 367.838 240.304C368.097 241.267 368.657 242.122 369.436 242.745C370.214 243.368 371.171 243.726 372.168 243.767C372.168 243.767 384.962 246.827 388.02 247.237C391.077 247.647 417.583 249.887 417.583 249.887C417.583 249.887 424.31 250.095 425.124 247.647C425.87 245.407 438.866 233.64 446.388 243.908C447.082 244.858 447.542 245.958 447.731 247.119C447.92 248.28 447.833 249.469 447.477 250.59C446.095 254.996 443.257 261.991 440.211 257.64C435.93 251.52 430.952 253.24 430.952 256.502C430.952 259.763 424.102 258.552 421.864 259.011C420.641 259.262 416.433 260.381 412.794 261.36C408.571 262.503 404.244 263.222 399.878 263.508C392.655 263.98 382.008 264.371 378.234 262.945C373.678 261.214 365.734 260.816 362.333 260.724C361.207 260.697 360.119 260.306 359.233 259.61C354.513 255.914 350.521 251.371 347.46 246.215C342.158 237.036 331.253 218.029 331.987 212.521C332.721 207.014 353.998 212.521 353.998 212.521Z" fill="#EFB7B9"/>
<path opacity="0.05" d="M353.998 212.521C353.998 212.521 366.841 236.834 367.838 240.304C368.097 241.267 368.657 242.122 369.436 242.745C370.214 243.368 371.171 243.726 372.168 243.767C372.168 243.767 384.962 246.827 388.02 247.237C391.077 247.647 417.583 249.887 417.583 249.887C417.583 249.887 424.31 250.095 425.124 247.647C425.87 245.407 438.866 233.64 446.388 243.908C447.082 244.858 447.542 245.958 447.731 247.119C447.92 248.28 447.833 249.469 447.477 250.59C446.095 254.996 443.257 261.991 440.211 257.64C435.93 251.52 430.952 253.24 430.952 256.502C430.952 259.763 424.102 258.552 421.864 259.011C420.641 259.262 416.433 260.381 412.794 261.36C408.571 262.503 404.244 263.222 399.878 263.508C392.655 263.98 382.008 264.371 378.234 262.945C373.678 261.214 365.734 260.816 362.333 260.724C361.207 260.697 360.119 260.306 359.233 259.61C354.513 255.914 350.521 251.371 347.46 246.215C342.158 237.036 331.253 218.029 331.987 212.521C332.721 207.014 353.998 212.521 353.998 212.521Z" fill="black"/>
<path d="M551.365 440.262C551.342 453.265 546.306 465.758 537.306 475.138C528.306 484.518 516.036 490.061 503.053 490.613C490.069 491.166 477.373 486.684 467.61 478.102C457.847 469.52 451.77 457.5 450.645 444.545C450.571 443.725 450.516 442.905 450.492 442.098V442.055C450.467 441.447 450.455 440.835 450.455 440.219C450.455 426.829 455.771 413.988 465.233 404.52C474.695 395.053 487.529 389.734 500.91 389.734C514.292 389.734 527.125 395.053 536.587 404.52C546.049 413.988 551.365 426.829 551.365 440.219V440.262Z" fill="#65617D"/>
<path d="M500.91 467.769C516.109 467.769 528.431 455.44 528.431 440.231C528.431 425.023 516.109 412.694 500.91 412.694C485.711 412.694 473.389 425.023 473.389 440.231C473.389 455.44 485.711 467.769 500.91 467.769Z" fill="#DCE0ED"/>
<path d="M500.91 456.754C510.03 456.754 517.423 449.356 517.423 440.231C517.423 431.106 510.03 423.709 500.91 423.709C491.79 423.709 484.398 431.106 484.398 440.231C484.398 449.356 491.79 456.754 500.91 456.754Z" fill="#65617D"/>
<path d="M368.406 344.358L246.911 346.806V328.888C248 314.465 262.812 309.404 276.267 307.819C286.786 306.624 297.435 307.423 307.659 310.175C333.437 317.004 349.857 318.326 357.948 318.455C359.724 318.481 361.437 319.121 362.796 320.265C364.156 321.409 365.079 322.987 365.41 324.733C365.795 326.783 366.174 329.017 366.529 331.22C366.798 332.945 367.055 334.647 367.287 336.232C367.96 340.797 368.406 344.358 368.406 344.358Z" fill="#65617D"/>
<path d="M465.335 443.493H212.944C210.995 443.513 209.084 442.959 207.448 441.9C205.811 440.841 204.522 439.325 203.74 437.539C201.838 432.992 204.498 430.091 207.336 428.39C213.143 424.946 217.546 419.557 219.763 413.177C222.454 405.222 225.084 392.775 226.117 373.328C227.182 353.213 234.459 343.269 242.324 338.447C252.482 332.23 263.619 334.561 263.619 334.561L365.954 335.381C367.775 336.208 369.46 337.308 370.95 338.643C380.069 347.136 366.773 358.225 366.773 358.225C338.231 388.412 359.838 419.009 359.838 419.009H412.201C421.985 419.06 431.552 416.129 439.63 410.607C446.706 405.712 449.415 400.981 450.504 398.117C451.311 395.927 452.131 393.742 453.109 391.625C466.845 361.817 450.278 313.327 443.128 295.195C441.355 290.685 440.162 288.053 440.162 288.053L456.583 286.83L466.98 286.04H467.084C489.969 325.535 498.476 366.119 501.332 396.19C501.601 399.023 501.821 401.771 501.999 404.408C502.323 409.423 501.614 414.45 499.918 419.18C498.221 423.91 495.573 428.24 492.136 431.904C488.699 435.568 484.547 438.487 479.937 440.481C475.327 442.474 470.357 443.499 465.335 443.493Z" fill="#FF4D29"/>
<path opacity="0.1" d="M367.293 336.232H246.911V331.22H366.535C366.804 332.915 367.061 334.616 367.293 336.232Z" fill="black"/>
<path opacity="0.1" d="M370.957 338.679H243.297C242.965 338.68 242.636 338.614 242.33 338.484C252.489 332.266 263.625 334.598 263.625 334.598L365.96 335.418C367.782 336.244 369.467 337.344 370.957 338.679Z" fill="black"/>
<path d="M372.021 332.413H198.627C197.246 332.413 196.126 333.534 196.126 334.916V334.922C196.126 336.304 197.246 337.425 198.627 337.425H372.021C373.402 337.425 374.522 336.304 374.522 334.922V334.916C374.522 333.534 373.402 332.413 372.021 332.413Z" fill="#DCE0ED"/>
<path opacity="0.1" d="M501.332 396.202C495.516 402.529 491.235 405.02 491.437 398.344C492.048 378.15 456.577 286.848 456.577 286.848L467.066 286.052C489.957 325.517 498.47 366.101 501.332 396.202Z" fill="black"/>
<path opacity="0.1" d="M551.059 434.699C545.035 436.143 537.605 437.612 528.431 438.983C525.018 439.485 521.349 439.966 517.423 440.427C508.047 441.541 497.204 442.514 484.679 443.26C481.132 443.472 477.448 443.666 473.628 443.842C466.472 444.168 458.813 444.417 450.651 444.588L450.498 442.14V442.098C461.904 437.49 479.854 425.196 482.74 393.173C489.949 390.393 497.698 389.306 505.393 389.995C513.087 390.684 520.521 393.131 527.121 397.148C533.721 401.164 539.312 406.643 543.464 413.161C547.615 419.68 550.216 427.065 551.065 434.748L551.059 434.699Z" fill="black"/>
<path d="M440.982 443.493C440.982 443.493 498.898 437.202 478.948 348.905C478.948 348.905 507.564 375.157 525.367 389.746C543.17 404.335 574.905 424.449 574.905 424.449C574.905 424.449 555.958 442.165 440.982 443.493Z" fill="#FF4D29"/>
<path opacity="0.1" d="M440.982 443.493C440.982 443.493 498.898 437.202 478.948 348.905C478.948 348.905 507.564 375.157 525.367 389.746C543.17 404.335 574.905 424.449 574.905 424.449C574.905 424.449 555.958 442.165 440.982 443.493Z" fill="white"/>
<path d="M286.254 490.716C314.119 490.716 336.708 468.113 336.708 440.231C336.708 412.349 314.119 389.746 286.254 389.746C258.388 389.746 235.799 412.349 235.799 440.231C235.799 468.113 258.388 490.716 286.254 490.716Z" fill="#65617D"/>
<path d="M286.254 467.769C301.453 467.769 313.774 455.44 313.774 440.231C313.774 425.023 301.453 412.694 286.254 412.694C271.054 412.694 258.733 425.023 258.733 440.231C258.733 455.44 271.054 467.769 286.254 467.769Z" fill="#DCE0ED"/>
<path d="M286.254 456.754C295.373 456.754 302.766 449.356 302.766 440.231C302.766 431.106 295.373 423.709 286.254 423.709C277.134 423.709 269.741 431.106 269.741 440.231C269.741 449.356 277.134 456.754 286.254 456.754Z" fill="#65617D"/>
<path opacity="0.1" d="M342.824 425.067C342.824 392.469 316.948 366.039 285.03 366.039C253.112 366.039 227.237 392.469 227.237 425.067C227.237 426.446 227.284 427.811 227.377 429.161H342.684C342.777 427.811 342.824 426.446 342.824 425.067Z" fill="black"/>
<path d="M340.684 424.051C340.684 392.659 315.768 367.208 285.03 367.208C254.293 367.208 229.377 392.659 229.377 424.051C229.377 425.379 229.426 426.689 229.512 427.992H340.549C340.635 426.689 340.684 425.379 340.684 424.051Z" fill="#FF4D29"/>
<path opacity="0.1" d="M340.684 424.051C340.684 424.963 340.684 425.887 340.616 426.768C340.616 427.178 340.574 427.582 340.549 427.992H229.512C229.512 427.582 229.463 427.178 229.444 426.768C229.402 425.869 229.377 424.933 229.377 424.051C229.377 392.659 254.293 367.208 285.03 367.208C315.768 367.208 340.684 392.659 340.684 424.051Z" fill="white"/>
<path opacity="0.1" d="M340.616 426.799C340.616 427.209 340.574 427.613 340.549 428.023H229.512C229.512 427.613 229.463 427.209 229.444 426.799H340.616Z" fill="black"/>
<path opacity="0.1" d="M348.023 429.216H211.556C207.952 429.216 205.03 432.138 205.03 435.743C205.03 439.347 207.952 442.269 211.556 442.269H348.023C351.627 442.269 354.548 439.347 354.548 435.743C354.548 432.138 351.627 429.216 348.023 429.216Z" fill="black"/>
<path d="M348.023 427.992H211.556C207.952 427.992 205.03 430.914 205.03 434.519C205.03 438.123 207.952 441.045 211.556 441.045H348.023C351.627 441.045 354.548 438.123 354.548 434.519C354.548 430.914 351.627 427.992 348.023 427.992Z" fill="#DCE0ED"/>
<path opacity="0.1" d="M491.378 342.861C495.065 341.193 494.652 332.312 490.455 323.024C486.258 313.736 479.867 307.559 476.18 309.227C472.493 310.895 472.906 319.777 477.103 329.065C481.3 338.352 487.691 344.529 491.378 342.861Z" fill="black"/>
<path d="M491.989 342.247C495.676 340.579 495.263 331.698 491.066 322.41C486.869 313.122 480.478 306.945 476.791 308.613C473.104 310.281 473.517 319.163 477.714 328.451C481.911 337.738 488.302 343.915 491.989 342.247Z" fill="#DCE0ED"/>
<path opacity="0.1" d="M466.974 286.052V295.641H448.321C446.584 295.643 444.849 295.504 443.135 295.225C441.361 290.715 440.168 288.084 440.168 288.084L456.589 286.86L466.974 286.052Z" fill="black"/>
<path d="M466.974 294.393H448.321C431.937 294.393 418.659 282.154 418.659 266.996V264.457C418.659 249.33 431.937 237.066 448.321 237.066L466.974 238.761V294.393Z" fill="#FF4D29"/>
<path d="M436.242 253.283C436.242 253.283 447.403 259.249 440.982 269.346C440.982 269.346 433.105 282.271 420.72 281.047L416.213 253.283C416.213 253.283 431.044 251.906 436.242 253.283Z" fill="#FF4D29"/>
<path opacity="0.1" d="M431.955 252.744C433.729 252.812 435.466 253.277 437.037 254.105C438.607 254.933 439.972 256.103 441.031 257.53C443.018 260.283 444.205 264.298 440.994 269.346C440.994 269.346 433.117 282.271 420.733 281.047L416.225 253.283C416.225 253.283 425.503 252.396 431.955 252.744Z" fill="black"/>
<path opacity="0.1" d="M466.362 238.761H469.958C472.978 238.761 475.875 239.962 478.01 242.099C480.146 244.236 481.346 247.134 481.346 250.156V283.005C481.346 286.027 480.146 288.925 478.01 291.062C475.875 293.199 472.978 294.399 469.958 294.399H466.362V238.761Z" fill="black"/>
<path d="M466.974 238.761H470.57C473.59 238.761 476.486 239.962 478.622 242.099C480.758 244.236 481.957 247.134 481.957 250.156V283.005C481.957 286.027 480.758 288.925 478.622 291.062C476.486 293.199 473.59 294.399 470.57 294.399H466.974V238.761Z" fill="#DCE0ED"/>
<path d="M334.543 310.212C334.543 310.212 337.424 311.264 341.271 312.733C347.386 315.089 356.01 318.528 359.006 320.413C362.003 322.298 373.177 325.394 381.543 327.573C387.745 329.18 394.132 329.968 400.538 329.916C407.046 329.855 414.929 329.794 417.106 329.794C417.487 329.791 417.867 329.819 418.244 329.88C420.531 330.259 420.439 331.795 420.384 332.162V332.242C406.929 340.399 390.619 376.913 389.603 383.033C388.839 387.622 382.118 400.345 378.803 406.427C377.69 408.465 376.968 409.756 376.968 409.756L381.048 414.444L392.869 419.749L404.079 424.645C404.079 424.645 415.907 425.257 416.109 424.645C416.311 424.033 416.311 417.712 416.311 417.712C414.872 416.782 413.506 415.743 412.226 414.603C409.513 412.24 406.994 409.663 404.691 406.899C398.172 399.145 411.217 384.257 411.217 384.257L436.291 351.622C436.291 351.622 438.328 347.95 448.113 333.264C457.898 318.577 448.113 310.622 448.113 310.622L430.891 303.468C401.022 292.282 364.994 283.317 364.994 283.317L364.48 283.25L356.841 282.295L334.543 310.212Z" fill="#EFB7B9"/>
<path d="M411.498 419.749C411.498 419.749 413.638 422.277 412.036 422.503C410.434 422.73 406.226 421.818 406.226 421.818L379.543 407.743C379.543 407.743 376.638 405.675 375.953 409.732C375.268 413.789 374.803 413.404 374.803 413.404C374.803 413.404 371.287 420.973 374.803 422.54C378.32 424.106 399.444 430.305 399.444 430.305C399.444 430.305 430.102 437.269 433.007 429.235C435.912 421.2 427.809 422.583 427.809 422.583C427.809 422.583 417.718 420.135 414.274 415.239C414.25 415.239 409.284 416.616 411.498 419.749Z" fill="#444053"/>
<path opacity="0.05" d="M448.088 310.622L430.866 303.468C400.997 292.282 364.969 283.317 364.969 283.317L364.456 283.25L356.817 282.295L334.543 310.212C334.543 310.212 337.424 311.264 341.271 312.733C347.386 315.089 356.01 318.528 359.006 320.413C362.003 322.298 373.177 325.394 381.543 327.573C387.745 329.18 394.132 329.968 400.538 329.916C407.046 329.855 414.929 329.794 417.106 329.794C417.487 329.791 417.867 329.819 418.244 329.88C420.531 330.259 420.439 331.795 420.384 332.162V332.242C406.929 340.399 390.619 376.913 389.603 383.033C388.839 387.622 382.118 400.345 378.803 406.427L378.357 407.247C377.47 407.101 376.363 407.419 375.971 409.732C375.28 413.783 374.822 413.404 374.822 413.404C374.822 413.404 371.305 420.973 374.822 422.54C378.338 424.106 399.444 430.305 399.444 430.305C399.444 430.305 430.102 437.269 433.007 429.235C435.912 421.2 427.809 422.583 427.809 422.583C427.809 422.583 417.718 420.135 414.274 415.239C413.969 415.328 413.671 415.439 413.382 415.57C413.021 415.276 412.635 414.958 412.226 414.603C409.513 412.24 406.994 409.663 404.691 406.899C398.172 399.145 411.217 384.257 411.217 384.257L436.291 351.622C436.291 351.622 438.328 347.95 448.113 333.264C457.898 318.577 448.088 310.622 448.088 310.622Z" fill="black"/>
<path d="M314.007 173.736L314.936 174.911L315.456 175.566L318.698 179.648C318.698 179.648 326.434 182.132 333.216 183.742C340.28 185.412 346.304 186.141 341.515 182.145C338.543 179.666 338.347 175.517 339.43 171.068C340.342 167.645 341.647 164.339 343.32 161.216C343.56 160.751 343.799 160.298 344.035 159.858C345.554 157.046 347.237 154.327 349.074 151.713C344.726 148.7 340.216 145.928 335.565 143.409C329.963 140.508 325.364 139.241 328.281 144.981C330.152 148.653 329.541 152.777 327.792 156.724C327.657 157.037 327.51 157.336 327.357 157.661C325.787 160.719 323.848 163.574 321.584 166.161C319.264 168.884 316.73 171.417 314.007 173.736Z" fill="#EFB7B9"/>
<path d="M352.744 266.954L356.89 270.742L360.896 286.163H354.212L346.83 276.555L352.744 266.954Z" fill="#444053"/>
<path opacity="0.1" d="M346.83 276.555L351.294 282.362L354.212 286.163H360.896L360.211 283.525L357.294 272.29L356.89 270.742L352.744 266.954L347.081 276.145L346.83 276.555Z" fill="black"/>
<path opacity="0.1" d="M346.83 276.555L351.294 282.362L354.212 286.163H360.896L360.211 283.525L357.294 272.29L356.89 270.742L352.744 266.954L347.081 276.145L346.83 276.555Z" fill="black"/>
<path d="M324.611 317.133C324.611 317.133 327.492 318.185 331.339 319.654C337.455 322.01 346.078 325.449 349.074 327.334C352.071 329.219 363.245 332.315 371.611 334.494C377.813 336.103 384.199 336.893 390.606 336.844C397.114 336.782 404.997 336.721 407.174 336.721C407.555 336.718 407.935 336.747 408.312 336.807C410.599 337.186 410.507 338.722 410.452 339.089V339.169C396.997 347.326 380.687 383.841 379.672 389.96C378.907 394.55 372.186 407.272 368.871 413.355C367.758 415.392 367.036 416.684 367.036 416.684L371.116 421.371L382.931 426.671L394.141 431.566C394.141 431.566 405.969 432.178 406.171 431.566C406.373 430.954 406.373 424.633 406.373 424.633C404.933 423.703 403.568 422.664 402.288 421.524C399.575 419.161 397.056 416.584 394.753 413.82C388.234 406.066 401.278 391.178 401.278 391.178L426.353 358.543C426.353 358.543 428.39 354.871 438.175 340.185C447.96 325.498 438.175 317.543 438.175 317.543L422.482 308.566C398.019 293.677 363.563 285.11 363.563 285.11L363.049 285.043L355.41 284.088L324.611 317.133Z" fill="#EFB7B9"/>
<path opacity="0.1" d="M367.03 416.678L371.109 421.365L382.931 426.671L394.141 431.566C394.141 431.566 405.969 432.178 406.171 431.566C406.373 430.954 406.373 424.633 406.373 424.633C404.933 423.703 403.568 422.664 402.288 421.524C401.022 422.203 399.584 423.476 400.973 425.447C400.973 425.447 403.113 427.968 401.511 428.2C399.909 428.433 395.701 427.515 395.701 427.515L369.018 413.44L368.865 413.336C367.74 415.386 367.03 416.678 367.03 416.678Z" fill="black"/>
<path d="M401.566 426.671C401.566 426.671 403.706 429.192 402.098 429.424C400.49 429.657 396.288 428.733 396.288 428.733L369.611 414.658C369.611 414.658 366.706 412.596 366.015 416.647C365.324 420.698 364.871 420.319 364.871 420.319C364.871 420.319 361.355 427.894 364.871 429.461C368.388 431.028 389.487 437.202 389.487 437.202C389.487 437.202 420.139 444.16 423.044 436.131C425.949 428.102 417.846 429.473 417.846 429.473C417.846 429.473 407.755 427.025 404.318 422.13C404.336 422.154 399.346 423.531 401.566 426.671Z" fill="#444053"/>
<path opacity="0.1" d="M326.238 155.17C329.773 157.618 335.167 161.492 339.772 161.492C340.96 161.491 342.146 161.397 343.32 161.21C345.023 157.917 346.945 154.742 349.074 151.707C349.074 151.707 322.165 132.938 328.281 144.975C330.299 148.977 328.312 150.942 326.238 155.17Z" fill="black"/>
<path d="M317.756 138.238C317.753 141.912 318.67 145.528 320.423 148.756C322.176 151.985 324.709 154.722 327.792 156.718C328.484 157.17 329.203 157.579 329.944 157.942C334.23 160.081 339.096 160.764 343.804 159.886C348.512 159.009 352.806 156.619 356.034 153.08C359.263 149.541 361.25 145.044 361.694 140.273C362.139 135.502 361.016 130.715 358.497 126.64C355.977 122.565 352.199 119.422 347.733 117.69C343.268 115.957 338.36 115.728 333.754 117.038C329.147 118.348 325.093 121.126 322.206 124.949C319.319 128.772 317.757 133.433 317.756 138.225V138.238Z" fill="#EFB7B9"/>
<path opacity="0.1" d="M324.611 317.133C324.611 317.133 327.492 318.185 331.339 319.654C333.755 317.525 336.231 315.468 337.265 315.095C339.509 314.275 346.848 309.992 346.646 308.768C346.445 307.544 349.704 302.856 352.554 302.036C355.404 301.216 353.777 296.939 353.777 296.939C353.777 296.939 359.282 294.901 360.652 292.043C362.021 289.185 366.217 285.514 364.786 285.722C364.165 285.621 363.573 285.39 363.049 285.043L355.41 284.088L324.611 317.133Z" fill="black"/>
<path d="M307.891 309.79C307.891 309.79 317.273 317.543 317.707 321.006C318.141 324.47 324.404 324.274 324.404 324.274C324.404 324.274 333.785 315.297 336.023 314.483C338.262 313.669 345.607 309.38 345.405 308.156C345.203 306.932 348.463 302.244 351.313 301.424C354.163 300.604 352.536 296.327 352.536 296.327C352.536 296.327 358.04 294.289 359.41 291.431C360.78 288.574 364.975 284.902 363.544 285.11C363.141 285.165 361.85 284.498 360.211 283.525C358.199 282.301 355.649 280.643 353.57 279.241C351.368 277.748 349.686 276.561 349.686 276.561C349.686 276.561 348.726 276.39 347.081 276.151C338.207 274.866 309.304 271.586 302.595 282.271C301.701 283.683 301.03 285.225 300.607 286.842C297.604 298.224 307.891 309.79 307.891 309.79Z" fill="#444053"/>
<path opacity="0.1" d="M317.701 285.055C317.701 285.055 308.123 290.464 304.552 290.464C300.98 290.464 317.701 285.055 317.701 285.055Z" fill="black"/>
<path opacity="0.1" d="M324.098 289.186C324.098 289.186 309.836 293.983 309.836 297.753C309.836 301.522 308.503 287.656 324.098 289.186Z" fill="black"/>
<path opacity="0.1" d="M358.242 267.578L358.04 267.853C358.132 267.782 358.202 267.687 358.242 267.578Z" fill="black"/>
<path opacity="0.1" d="M314.007 173.736L314.936 174.911L315.456 175.566L318.698 179.648C318.698 179.648 326.434 182.132 333.216 183.742C340.28 185.412 346.304 186.141 341.515 182.145C338.543 179.666 338.347 175.517 339.43 171.068L339.216 170.793C339.216 170.793 339.43 174.918 336.99 174.997C333.699 175.101 333.657 173.994 330.623 172.715C326.715 171.062 322.709 168.302 321.584 166.155C319.265 168.88 316.731 171.416 314.007 173.736Z" fill="black"/>
<path opacity="0.1" d="M300.607 286.823C302.276 287.537 304.155 287.581 305.854 286.946C312.172 284.902 322.165 279.982 326.85 282.136C330.605 283.862 345.729 283.813 351.313 282.362C352.701 282.001 353.496 281.555 353.374 281.028C353.295 280.422 353.368 279.806 353.588 279.235C354.236 277.161 355.997 274.279 357.312 272.29L356.909 270.742L352.762 266.954L347.099 276.133C338.225 274.848 309.322 271.568 302.613 282.252C301.712 283.663 301.036 285.205 300.607 286.823Z" fill="black"/>
<path d="M296.479 282.05C296.479 282.05 298.925 287.76 305.243 285.722C311.561 283.684 321.554 278.758 326.238 280.912C330.923 283.066 353.356 282.454 352.744 279.804C352.132 277.155 358.248 268.789 358.248 268.789C358.248 268.789 354.909 268.178 352.842 257.267C352.536 255.676 352.261 253.864 352.028 251.808C351.523 247.597 351.405 243.349 351.674 239.116C352.499 227.306 356.634 222.484 356.634 222.484C356.634 222.484 362.34 215.961 357.447 206.983C354.884 202.277 344.543 189.237 344.402 183.424C344.274 178.149 339.234 172.017 339.234 172.017C339.234 172.017 339.448 176.141 337.008 176.221C333.718 176.325 333.675 175.217 330.642 173.938C326.183 172.054 321.603 168.731 321.303 166.509C321.303 166.509 302.613 165.573 298.534 184.543C294.455 203.514 295.886 213.917 296.497 216.162C297.109 218.408 302.405 247.371 298.124 259.61C293.843 271.849 296.479 282.05 296.479 282.05Z" fill="#A36468"/>
<path opacity="0.1" d="M326.954 248.724C330.325 254.414 334.834 259.345 340.201 263.209C343.779 263.238 347.353 263.477 350.903 263.925C350.597 262.333 350.291 260.522 350.09 258.466C349.584 254.255 349.466 250.007 349.735 245.774C349.148 245.48 348.63 245.063 348.217 244.552C347.803 244.042 347.504 243.448 347.338 242.813C346.316 239.343 337.222 222.82 337.222 222.82C337.222 222.82 315.945 217.313 315.205 222.82C314.465 228.328 321.651 239.545 326.954 248.724Z" fill="black"/>
<path d="M334.005 212.521C334.005 212.521 346.848 236.834 347.845 240.304C348.105 241.267 348.664 242.122 349.443 242.745C350.222 243.368 351.179 243.726 352.175 243.767C352.175 243.767 364.969 246.827 368.027 247.237C371.085 247.647 397.609 249.887 397.609 249.887C397.609 249.887 404.336 250.095 405.15 247.647C405.896 245.407 418.892 233.64 426.414 243.908C427.108 244.858 427.568 245.958 427.757 247.119C427.946 248.28 427.859 249.469 427.503 250.59C426.121 254.996 423.283 261.991 420.237 257.64C415.956 251.52 410.978 253.24 410.978 256.502C410.978 259.763 404.128 258.552 401.89 259.011C400.667 259.262 396.459 260.381 392.82 261.36C388.587 262.505 384.25 263.224 379.873 263.508C372.651 263.98 362.003 264.371 358.23 262.945C353.68 261.214 345.735 260.816 342.329 260.724C341.202 260.697 340.115 260.306 339.228 259.61C334.51 255.913 330.521 251.371 327.461 246.215C322.159 237.036 311.255 218.029 311.989 212.521C312.722 207.014 334.005 212.521 334.005 212.521Z" fill="#EFB7B9"/>
<path opacity="0.1" d="M329.724 178.834C329.724 178.834 336.604 190.259 339.791 198.416C342.977 206.573 346.848 220.856 346.848 220.856L327.682 218.61L326.055 215.96C326.055 215.96 312.368 224.528 314.001 228.199C315.634 231.871 310.331 222.692 310.741 212.289C311.151 201.886 309.267 183.32 310.741 178.834C312.215 174.348 325.217 175.364 329.724 178.834Z" fill="black"/>
<path d="M310.765 211.065C310.356 221.468 315.658 230.647 314.025 226.975C312.392 223.304 326.079 214.737 326.079 214.737L327.688 217.386L346.848 219.632C346.848 219.632 342.977 205.349 339.791 197.192C337.877 192.577 335.687 188.082 333.235 183.73C331.271 180.162 329.724 177.61 329.724 177.61C327.088 175.572 321.492 174.379 317.028 174.661C316.332 174.7 315.64 174.784 314.955 174.911C313.12 175.272 311.64 175.97 310.986 177.072C310.886 177.242 310.804 177.423 310.741 177.61C309.273 182.096 311.157 200.662 310.765 211.065Z" fill="#A36468"/>
<path opacity="0.1" d="M302.203 239.545C302.203 239.545 310.307 250.713 312.753 251.019C312.735 251.043 302.338 248.724 302.203 239.545Z" fill="black"/>
<path opacity="0.1" d="M302.203 255.455C302.203 255.455 317.493 270.907 322.385 271.06C327.278 271.213 302.203 255.455 302.203 255.455Z" fill="black"/>
<path opacity="0.1" d="M302.203 261.905C302.203 261.905 311.989 273.379 312.6 273.379C313.212 273.379 302.032 269.401 302.203 261.905Z" fill="black"/>
<path opacity="0.1" d="M310.967 177.072C312.54 176.837 314.06 176.327 315.456 175.566C315.982 175.291 316.502 174.985 317.01 174.661C319.015 173.318 320.883 171.78 322.587 170.071C325.4 167.336 328.208 164.349 329.37 160.598C329.631 159.734 329.823 158.85 329.944 157.955C330.642 153.249 330.054 148.053 333.418 144.853C334.05 144.256 334.775 143.766 335.565 143.403C340.335 141.132 347.252 142.601 350.811 138.507C353.074 135.912 353.019 132.308 354.756 129.487C355.514 128.263 356.909 127.204 358.144 126.078C356.345 123.338 353.957 121.034 351.155 119.334C348.352 117.635 345.206 116.582 341.946 116.254C338.685 115.926 335.393 116.33 332.308 117.438C329.224 118.545 326.425 120.327 324.117 122.654C321.808 124.981 320.048 127.795 318.964 130.889C317.881 133.984 317.501 137.281 317.853 140.541C318.206 143.801 319.28 146.941 321 149.732C322.719 152.524 325.04 154.896 327.792 156.676C327.657 156.988 327.51 157.287 327.357 157.612C323.156 166.179 314.007 173.694 314.007 173.694L314.936 174.869C313.083 175.291 311.622 175.97 310.967 177.072Z" fill="black"/>
<path d="M349.588 137.907C345.448 142.656 336.745 139.89 332.189 144.241C328.189 148.053 329.779 154.705 328.146 159.986C326.984 163.737 324.177 166.718 321.364 169.459C317.267 173.449 312.025 177.5 306.423 176.356C303.102 175.676 299.849 173.192 296.638 174.336C295.042 174.911 293.898 176.294 292.706 177.512C288.655 181.643 283.389 184.368 277.679 185.29C276.55 185.545 275.373 185.49 274.273 185.131C272.56 184.433 271.637 182.561 270.077 181.563C267.02 179.605 263.093 181.612 259.919 183.362C251.042 188.172 241.244 191.034 231.175 191.759C221.107 192.484 210.999 191.054 201.526 187.566L206.474 185.119C205.422 182.971 202.578 182.5 200.768 180.927C197.037 177.69 199.233 171.215 203.177 168.247C207.122 165.279 212.229 164.245 216.314 161.473C217.146 160.91 217.99 160.164 218.069 159.166C218.056 158.434 217.824 157.722 217.403 157.122C215.225 153.285 212.816 149.167 213.305 144.779C214.051 138.048 221.396 133.911 228.142 133.44C234.887 132.969 241.566 135.001 248.324 135.117C250.77 135.16 253.333 134.921 255.43 133.654C258.36 131.892 259.834 128.532 261.613 125.613C264.79 120.431 269.342 116.232 274.762 113.485C280.878 110.394 287.801 109.311 294.161 106.753C300.656 104.146 306.564 100.022 313.359 98.3636C323.223 95.9158 333.791 99.1163 342.311 104.648C346.414 107.31 359.52 115.853 359.435 121.318C359.367 124.561 355.154 126.317 353.557 128.863C351.796 131.708 351.851 135.313 349.588 137.907Z" fill="#965D7B"/>
<g opacity="0.1">
<path opacity="0.1" d="M216.803 154.056C217.221 154.657 217.453 155.368 217.47 156.1C217.445 156.358 217.373 156.61 217.256 156.841C215.458 153.671 213.586 150.311 213.287 146.774C214.082 149.302 215.482 151.731 216.803 154.056Z" fill="black"/>
<path opacity="0.1" d="M200.168 177.861C201.972 179.434 204.816 179.905 205.874 182.053L204.125 182.922C202.947 182.367 201.826 181.697 200.78 180.921C200.117 180.329 199.599 179.592 199.268 178.767C198.937 177.942 198.802 177.052 198.872 176.166C199.184 176.814 199.625 177.391 200.168 177.861Z" fill="black"/>
<path opacity="0.1" d="M259.32 180.303C262.494 178.552 266.426 176.545 269.478 178.504C271.031 179.501 271.961 181.374 273.673 182.071C274.772 182.43 275.947 182.485 277.074 182.23C282.786 181.309 288.053 178.583 292.106 174.452C293.293 173.229 294.436 171.852 296.039 171.277C299.231 170.132 302.485 172.617 305.824 173.296C311.426 174.44 316.661 170.389 320.765 166.399C323.578 163.664 326.379 160.678 327.541 156.926C329.18 151.645 327.59 144.994 331.59 141.181C336.158 136.83 344.842 139.596 348.989 134.848C351.246 132.253 351.197 128.649 352.934 125.828C354.401 123.447 358.205 121.758 358.743 118.888C359.164 119.637 359.397 120.477 359.422 121.336C359.355 124.579 355.141 126.335 353.545 128.881C351.808 131.702 351.857 135.307 349.6 137.901C345.454 142.65 336.757 139.884 332.201 144.235C328.201 148.047 329.792 154.699 328.153 159.98C326.991 163.731 324.19 166.711 321.376 169.453C317.273 173.443 312.038 177.494 306.436 176.35C303.109 175.67 299.855 173.186 296.65 174.33C295.048 174.905 293.904 176.288 292.718 177.506C288.665 181.637 283.397 184.362 277.685 185.284C276.558 185.539 275.383 185.484 274.285 185.125C272.573 184.427 271.643 182.555 270.09 181.557C267.032 179.599 263.105 181.606 259.931 183.356C251.055 188.165 241.256 191.028 231.187 191.753C221.119 192.478 211.012 191.048 201.538 187.56L204.957 185.865C213.938 188.565 223.364 189.463 232.693 188.509C242.022 187.554 251.071 184.765 259.32 180.303Z" fill="black"/>
</g>
<path opacity="0.1" d="M410.452 339.083L415.595 336.593V335.62C415.595 335.246 411.492 336.073 408.312 336.776C410.599 337.18 410.507 338.716 410.452 339.083Z" fill="black"/>
<path d="M414.923 282.809C421.766 282.809 427.313 276.056 427.313 267.725C427.313 259.394 421.766 252.64 414.923 252.64C408.08 252.64 402.532 259.394 402.532 267.725C402.532 276.056 408.08 282.809 414.923 282.809Z" fill="#FF4D29"/>
<path d="M295.666 248.094L275.747 267.749L210.265 266.605L228.27 248.094H295.666Z" fill="#DDA2A6"/>
<path d="M295.666 315.334V248.094L275.747 267.749V333.545L295.666 315.334Z" fill="#B77B7F"/>
<path d="M210.265 266.605V333.545H275.747V267.749L210.265 266.605Z" fill="#DDA2A6"/>
<path opacity="0.3" d="M210.265 266.605V333.545H275.747V267.749L210.265 266.605Z" fill="white"/>
<path d="M270.426 286.175L221.726 277.81L215.378 309.802L265.515 319.018L270.426 286.175Z" fill="#DCE0ED"/>
<path d="M260.806 293.647L228.068 288.5L227.249 292.771L259.986 298.328L260.806 293.647Z" fill="#FF4D29"/>
<path d="M251.804 302.783L233.181 300.078L232.362 304.821L251.804 307.55V302.783Z" fill="#FF4D29"/>
<path d="M287.611 283.384L286.724 256.912L281.606 261.966L282.498 288.5L287.611 283.384Z" fill="#65617D"/>
<path d="M221.684 254.868L284.608 255.718L286.724 256.912L281.606 261.966L279.838 260.926L217.513 259.157L221.684 254.868Z" fill="#65617D"/>
</svg>
