<svg width="496" height="366" viewBox="0 0 496 366" fill="none" xmlns="http://www.w3.org/2000/svg">
<g clip-path="url(#clip0)">
<path opacity="0.1" d="M5.33887 175.474C13.171 205.754 29.7371 231.929 55.9164 244.618C110.34 270.987 233.08 257.388 324.685 241.776C372.07 233.702 413.72 211.419 443.975 180.061L5.33887 175.474Z" fill="#FF4D29"/>
<path opacity="0.1" d="M485.711 32.9414H435.449C433.063 32.9414 431.106 31.1732 431.106 29.0126C431.106 26.852 433.063 25.0793 435.449 25.0793H444.142C441.752 25.0793 439.8 23.3111 439.8 21.146C439.8 18.9809 441.752 17.2172 444.142 17.2172H437.938C435.548 17.2172 433.591 15.4491 433.591 13.2839C433.591 11.1188 435.548 9.35514 437.938 9.35514H464.171C458.35 6.90585 451.546 5.16473 443.705 4.24907C372.169 -4.06409 346.63 1.43441 337.621 7.08628C326.392 14.2187 313.918 19.1678 300.855 21.6738C256.721 29.9148 174.183 39.8292 99.3742 18.5163C62.1929 7.9027 34.5572 25.8146 17.9956 55.7564H494.44C493.818 47.0553 491.956 39.0173 488.538 31.9852C487.728 32.6103 486.733 32.9469 485.711 32.9414Z" fill="#FF4D29"/>
<path opacity="0.1" d="M1.07777 112.271C-0.852782 129.881 -0.196531 147.679 3.02566 165.099L444.313 179.71C456.461 167.106 466.782 152.861 474.975 137.39L1.07777 112.271ZM175.612 149.957H166.924C169.313 149.957 171.27 151.73 171.27 153.89C171.27 156.051 169.313 157.819 166.924 157.819H116.662C114.276 157.819 112.32 156.051 112.32 153.89C112.32 151.73 114.276 149.957 116.662 149.957H125.355C122.965 149.957 121.013 148.189 121.013 146.028C121.013 143.868 122.965 142.095 125.355 142.095H119.146C116.756 142.095 114.799 140.327 114.799 138.166C114.799 136.006 116.756 134.233 119.146 134.233H169.408C171.798 134.233 173.75 136.001 173.75 138.166C173.75 140.331 171.798 142.095 169.408 142.095H175.612C178.002 142.095 179.955 143.863 179.955 146.028C179.955 148.193 178.002 149.957 175.612 149.957Z" fill="#FF4D29"/>
<path opacity="0.1" d="M494.458 56.027L12.6792 66.627C6.81747 80.2628 2.9307 95.6802 1.14062 111.657H486.017C489.172 102.31 491.514 92.7067 493.015 82.9557C494.462 73.569 495.039 64.489 494.458 56.027ZM98.9591 90.7817H90.2702C92.66 90.7817 94.6169 92.5544 94.6169 94.715C94.6169 96.8756 92.66 98.6483 90.2702 98.6483H40.0083C37.623 98.6483 35.6661 96.8756 35.6661 94.715C35.6661 92.5544 37.623 90.7817 40.0083 90.7817H48.7017C46.3119 90.7817 44.3595 89.0135 44.3595 86.8529C44.3595 84.6923 46.3119 82.9196 48.7017 82.9196H42.4927C40.103 82.9196 38.1461 81.1514 38.1461 78.9908C38.1461 76.8302 40.103 75.0575 42.4927 75.0575H92.7547C95.1444 75.0575 97.0968 76.8257 97.0968 78.9908C97.0968 81.1559 95.1444 82.9196 92.7547 82.9196H98.9591C101.349 82.9196 103.301 84.6923 103.301 86.8529C103.301 89.0135 101.349 90.7817 98.9591 90.7817Z" fill="#FF4D29"/>
<path opacity="0.1" d="M245.777 352.319C357.087 352.319 447.321 344.015 447.321 333.771C447.321 323.528 357.087 315.223 245.777 315.223C134.468 315.223 44.2334 323.528 44.2334 333.771C44.2334 344.015 134.468 352.319 245.777 352.319Z" fill="#FF4D29"/>
<path d="M451.19 180.571C451.187 180.54 451.187 180.508 451.19 180.476C451.19 180.427 451.19 180.382 451.19 180.336C451.099 179.82 450.904 179.327 450.617 178.889C449.585 177.236 448.148 175.876 446.442 174.937C443.466 173.304 439.376 172.605 438.186 169.488C437.82 168.523 437.811 167.472 437.631 166.462C437.316 164.887 436.592 163.424 435.532 162.218C434.472 161.012 433.114 160.107 431.593 159.592C430.178 159.118 428.649 158.988 427.274 158.401C424.199 157.093 422.575 153.868 421.2 150.886C419.421 147.037 417.641 143.187 415.862 139.335C414.509 140.016 412.759 139.695 411.492 138.843C410.271 137.934 409.299 136.731 408.665 135.347C406.83 131.784 406.041 127.747 403.886 124.355C401.73 120.963 397.424 118.283 393.619 119.758C392.876 120.13 392.107 120.448 391.319 120.71C388.059 121.472 384.452 117.746 381.661 119.555C381.197 119.853 380.819 120.266 380.565 120.755C380.563 120.725 380.563 120.695 380.565 120.665C380.202 121.399 379.999 122.201 379.97 123.019C379.97 123.186 379.97 123.349 379.97 123.507C379.97 123.534 379.97 123.561 379.97 123.588C379.97 124.237 380.01 124.896 380.019 125.554C380.03 126.108 379.987 126.66 379.893 127.205V127.16C379.84 127.467 379.762 127.769 379.659 128.062C378.933 130.011 376.922 131.288 375.979 133.119V133.029C375.873 133.228 375.781 133.434 375.704 133.647C375.537 134.127 375.45 134.631 375.447 135.14C375.366 138.581 379.014 141.82 379.438 145.514C379.74 148.13 380.34 148.969 382.563 150.449L383.05 150.774C382.856 150.774 382.657 150.801 382.436 150.805C382.35 150.807 382.264 150.816 382.179 150.832C381.787 150.724 381.376 150.705 380.975 150.775C380.574 150.845 380.194 151.003 379.862 151.238C378.157 152.591 374.126 151.549 372.336 151.238C370.546 150.927 364.414 151.766 363.557 155.167C362.7 158.568 361.23 165.587 361.23 165.587C361.23 165.587 361.23 170.039 360.685 170.869C360.664 170.927 360.664 170.991 360.685 171.049C360.685 172.298 360.73 179.809 359.522 181.744C359.224 182.195 359.246 183.192 359.467 184.419C358.196 186.056 357.001 187.969 357.213 189.223C357.601 191.789 362.804 199.859 370.262 195.537C370.262 195.537 374.505 187.775 369.166 183.647L369.396 182.745C371.01 184.73 372.205 186.155 372.205 186.155C372.205 186.155 372.268 186.322 372.368 186.606H372.205C372.902 188.503 373.324 190.49 373.459 192.506C373.438 193.246 373.305 193.977 373.062 194.676H373.202C373.161 194.829 373.116 194.983 373.062 195.127C372.8 195.889 372.311 196.552 371.66 197.026C367.931 199.669 363.661 218.546 363.661 218.546C363.661 218.546 355.202 249.061 353.511 250.798C352.113 252.223 360.897 256.237 367.489 255.759C368.409 255.705 369.318 255.532 370.194 255.245C370.235 255.696 370.28 256.147 370.325 256.558C370.465 257.911 370.609 259.165 370.699 259.557C370.934 260.541 371.398 270.581 371.398 270.581C371.398 270.581 370.447 277.104 370.677 281.642C370.677 281.953 370.717 282.251 370.744 282.544L369.924 282.67C368.679 285.467 373.806 308.8 374.505 310.762C374.968 312.309 375.229 313.908 375.281 315.521C375.281 315.521 374.83 317.181 375.204 318.088C375.437 318.642 375.589 319.227 375.655 319.824C375.655 319.824 375.348 321.331 375.813 322.314C376.277 323.298 375.736 325.021 375.736 325.021C375.736 325.021 375.583 331.818 374.185 335.517C373.804 336.512 373.693 337.591 373.864 338.643C374.034 339.695 374.479 340.683 375.154 341.507C375.251 341.636 375.357 341.758 375.47 341.873C375.47 341.873 383.18 341.936 384.537 341.873H384.713C385.259 341.796 386.657 335.679 385.412 332.734C384.168 329.788 385.259 326.162 385.259 326.162V320.803C385.259 320.803 386.657 319.513 385.259 316.744C383.861 313.974 384.091 313.135 384.091 313.135C384.091 313.135 385.647 308.678 384.014 307.244C382.382 305.81 384.326 300.37 384.326 300.37L384.876 282.237C384.588 282.143 384.294 282.068 383.996 282.011C383.965 281.714 383.933 281.407 383.902 281.082C383.582 277.798 383.307 273.333 384.019 272.061C384.731 270.789 385.074 259.684 385.187 251.966L392.293 252.237C392.442 255.845 392.6 259.138 392.699 259.557C392.933 260.541 393.402 270.581 393.402 270.581C393.402 270.581 392.446 277.104 392.676 281.642C392.676 281.953 392.717 282.251 392.744 282.544L391.923 282.67C390.679 285.467 395.805 308.8 396.504 310.762C396.968 312.309 397.23 313.908 397.284 315.521C397.284 315.521 396.834 317.181 397.203 318.088C397.436 318.642 397.588 319.227 397.654 319.824C397.654 319.824 397.348 321.331 397.812 322.314C398.276 323.298 397.735 325.021 397.735 325.021C397.735 325.021 397.582 331.818 396.184 335.517C395.81 336.514 395.705 337.592 395.881 338.642C396.056 339.693 396.506 340.678 397.185 341.498C397.282 341.627 397.388 341.749 397.501 341.863C397.501 341.863 405.211 341.927 406.569 341.863H406.744C407.29 341.787 408.688 335.67 407.443 332.725C406.199 329.779 407.29 326.153 407.29 326.153V320.803C407.29 320.803 408.688 319.513 407.29 316.744C405.892 313.974 406.122 313.135 406.122 313.135C406.122 313.135 407.678 308.678 406.045 307.244C404.413 305.81 406.357 300.37 406.357 300.37L406.916 282.237C406.62 282.142 406.319 282.066 406.014 282.011C405.982 281.714 405.951 281.407 405.919 281.082C405.599 277.798 405.324 273.333 406.036 272.061C406.609 271.019 406.938 264.307 407.087 257.753C407.087 257.302 407.087 256.851 407.123 256.4C410.388 256.264 413.64 255.899 416.854 255.308C416.854 255.308 413.052 241.862 414.216 239.674C414.716 238.732 413.995 233.711 413.007 228.303C414.385 229.418 416.096 230.038 417.868 230.062C419.568 233.332 424.74 240.856 427.653 242.015C431.07 243.369 428.505 231.37 426.877 229.634C426.107 228.685 425.458 227.644 424.947 226.535C424.992 226.481 425.042 226.436 425.087 226.386C425.132 226.336 425.168 213.621 424.388 213.851C423.608 214.081 422.679 211.961 422.679 211.961L420.271 190.819L419.261 181.969C420.105 182.592 421.106 182.989 421.967 183.607C424.311 185.325 425.078 188.343 426.106 191.013C426.954 193.21 428.144 195.389 430.097 196.769C432.049 198.149 434.912 198.514 436.86 197.116C438.664 195.804 439.196 193.435 439.593 191.275C442.866 192.425 446.838 189.349 446.415 185.988C446.311 185.158 446.004 184.252 446.437 183.526C447.303 182.091 450.044 182.926 450.946 181.509C451.098 181.264 451.176 180.981 451.172 180.693C451.185 180.63 451.19 180.603 451.19 180.571ZM407.403 192.2C407.353 193.007 408.462 199.493 409.364 204.626C408.625 201.428 407.141 198.014 404.219 195.673C404.219 195.673 404.219 195.51 404.183 195.222H404.219C404.219 195.222 404.098 193.932 404.08 192.096C404.085 190.468 404.205 188.844 404.44 187.233V187.193H404.382C404.382 187.057 404.418 186.918 404.44 186.782C404.619 185.423 404.988 184.096 405.536 182.84C405.778 182.348 406.057 181.874 406.37 181.424C406.853 185.785 407.448 191.383 407.403 192.2ZM409.829 207.229C410.225 209.444 410.509 211 410.509 211L412.904 227.446V227.523C411.614 220.581 409.968 213.264 409.968 213.264C410.136 211.253 410.089 209.23 409.829 207.229Z" fill="url(#paint0_linear)"/>
<path d="M380.484 146.416C380.033 142.248 375.524 138.653 376.877 134.689C377.612 132.528 379.911 131.206 380.687 129.059C381.201 127.643 380.971 126.087 380.975 124.58C380.98 123.074 381.332 121.391 382.585 120.557C385.29 118.752 388.771 122.465 391.928 121.707C392.691 121.446 393.434 121.129 394.151 120.76C397.835 119.294 402.001 121.964 404.07 125.338C406.14 128.712 406.916 132.735 408.692 136.281C409.299 137.65 410.238 138.845 411.425 139.759C412.651 140.607 414.328 140.927 415.654 140.25L420.817 151.752C422.17 154.716 423.721 157.927 426.679 159.231C428.004 159.813 429.483 159.944 430.854 160.417C432.344 160.943 433.669 161.851 434.698 163.05C435.727 164.25 436.423 165.698 436.716 167.251C436.892 168.261 436.896 169.308 437.252 170.269C438.402 173.372 442.356 174.067 445.238 175.681C446.905 176.622 448.302 177.975 449.296 179.61C449.747 180.391 450.134 181.415 449.652 182.181C448.782 183.589 446.135 182.759 445.296 184.189C444.872 184.91 445.17 185.812 445.296 186.642C445.707 189.985 441.86 193.048 438.695 191.902C438.312 194.053 437.793 196.413 436.053 197.716C434.182 199.114 431.409 198.745 429.519 197.373C427.63 196.002 426.485 193.832 425.664 191.645C424.668 188.983 423.924 185.979 421.656 184.27C420.835 183.656 419.852 183.259 419.049 182.641C417.246 181.261 416.344 178.983 415.699 176.778C414.865 174.026 414.202 171.198 412.994 168.6C411.785 166.002 409.874 163.584 407.254 162.398C404.796 161.292 401.965 161.365 399.426 160.467C395.057 158.924 391.824 155.248 387.477 153.516C386.088 152.932 384.771 152.187 383.555 151.297C381.368 149.858 380.772 149.023 380.484 146.416Z" fill="#3F3D56"/>
<g opacity="0.1">
<path opacity="0.1" d="M380.89 128.175C380.983 127.999 381.064 127.816 381.133 127.629C381.643 126.213 381.417 124.657 381.422 123.15C381.421 122.648 381.468 122.146 381.561 121.653C381.145 122.544 380.943 123.52 380.971 124.503C380.966 125.717 381.111 126.989 380.89 128.175Z" fill="black"/>
<path opacity="0.1" d="M436.477 196.3C434.606 197.694 431.833 197.328 429.943 195.952C428.054 194.577 426.904 192.416 426.106 190.219C425.11 187.558 424.37 184.554 422.098 182.844C421.282 182.231 420.294 181.83 419.496 181.216C417.692 179.836 416.791 177.558 416.141 175.375C415.307 172.623 414.649 169.795 413.436 167.197C412.223 164.599 410.32 162.181 407.696 160.995C405.243 159.89 402.411 159.962 399.873 159.064C395.499 157.522 392.266 153.845 387.924 152.113C386.534 151.527 385.216 150.783 383.997 149.894C381.859 148.419 381.291 147.585 380.976 144.982C380.525 141.076 376.557 137.67 377.174 133.989C377.074 134.188 376.985 134.393 376.908 134.603C375.556 138.572 380.065 142.167 380.516 146.331C380.809 148.933 381.417 149.768 383.537 151.243C384.756 152.131 386.074 152.876 387.464 153.462C391.806 155.194 395.039 158.875 399.413 160.413C401.951 161.315 404.783 161.238 407.236 162.343C409.86 163.53 411.745 165.952 412.976 168.546C414.207 171.139 414.865 173.958 415.681 176.723C416.344 178.907 417.214 181.184 419.036 182.565C419.852 183.178 420.84 183.58 421.638 184.193C423.892 185.903 424.65 188.907 425.646 191.568C426.467 193.756 427.617 195.921 429.506 197.292C431.395 198.663 434.168 199.033 436.04 197.639C437.234 196.737 437.843 195.362 438.244 193.887C437.888 194.838 437.276 195.673 436.477 196.3Z" fill="black"/>
<path opacity="0.1" d="M445.743 182.772C445.57 183.096 445.495 183.462 445.526 183.828C446.545 182.822 448.845 183.413 449.648 182.118C449.834 181.798 449.907 181.425 449.855 181.058C448.809 182.051 446.509 181.46 445.743 182.772Z" fill="black"/>
<path opacity="0.1" d="M439.119 190.486C439.034 190.937 438.948 191.419 438.84 191.888C441.599 192.75 444.787 190.535 445.238 187.739C444.142 189.89 441.437 191.329 439.119 190.486Z" fill="black"/>
</g>
<path d="M386.309 148.586C386.309 148.586 387.811 151.617 383.378 151.68C378.946 151.743 386.232 171.365 386.232 171.365L393.6 180.747L402.767 175.785L403.295 162.1L403.971 153.832C403.971 153.832 395.404 151.049 396.982 147.368C398.56 143.687 386.309 148.586 386.309 148.586Z" fill="#FBBEBE"/>
<path d="M412.917 228.587C412.917 228.587 418.328 233.914 424.64 226.846L419.793 221.699H413.661L412.917 228.587Z" fill="#575A89"/>
<path opacity="0.1" d="M413.503 221.699L412.759 228.587C412.759 228.587 418.17 233.914 424.483 226.846" fill="black"/>
<path d="M422.607 222.637C422.607 222.637 424.785 228.352 426.363 230.08C427.941 231.808 430.421 243.761 427.116 242.408C423.811 241.055 417.498 230.982 417.119 229.255C416.74 227.527 416.596 222.637 416.596 222.637H422.607Z" fill="#FBBEBE"/>
<path d="M375.339 251.957L404.494 253.084L401.112 240.752L386.426 240.455L375.339 251.957Z" fill="#575A89"/>
<path opacity="0.1" d="M379.393 251.957L408.552 253.084L405.171 240.752L390.48 240.455L379.393 251.957Z" fill="black"/>
<path d="M384.88 272.313C384.19 273.599 384.456 278.047 384.767 281.335C384.966 283.428 385.182 285.038 385.182 285.038C385.182 285.038 374.284 288.421 372.633 285.489C372.214 284.745 372.007 283.441 371.935 281.912C371.709 277.402 372.633 270.902 372.633 270.902C372.633 270.902 372.183 260.906 371.957 259.927C371.867 259.535 371.727 258.29 371.592 256.941C371.393 254.938 371.204 252.71 371.204 252.71L386.084 244.816C386.084 244.816 386.084 246.296 386.057 248.574C385.976 255.728 385.737 270.735 384.88 272.313Z" fill="#FBBEBE"/>
<path opacity="0.1" d="M385.182 285.038C385.182 285.038 374.284 288.421 372.633 285.489C372.214 284.745 372.007 283.441 371.935 281.912C374.189 281.569 381.052 280.622 384.767 281.335C384.966 283.428 385.182 285.038 385.182 285.038Z" fill="black"/>
<path d="M385.556 341.873H385.385C384.073 341.922 376.615 341.873 376.615 341.873C376.506 341.758 376.403 341.638 376.308 341.512C375.649 340.686 375.214 339.705 375.044 338.662C374.874 337.619 374.976 336.55 375.339 335.558C376.692 331.872 376.84 325.106 376.84 325.106C376.84 325.106 377.368 323.379 376.917 322.4C376.466 321.421 376.764 319.919 376.764 319.919C376.695 319.325 376.543 318.744 376.313 318.192C375.939 317.289 376.39 315.634 376.39 315.634C376.338 314.03 376.085 312.439 375.637 310.898C374.96 308.945 370 285.715 371.204 282.932C371.204 282.932 381.724 281.127 385.71 282.481L385.182 300.523C385.182 300.523 383.302 305.936 384.88 307.366C386.458 308.796 384.957 313.23 384.957 313.23C384.957 313.23 384.731 314.055 386.084 316.838C387.437 319.621 386.084 320.898 386.084 320.898V326.234C386.084 326.234 385.033 329.843 386.233 332.775C387.432 335.706 386.084 341.778 385.556 341.873Z" fill="#3F3D56"/>
<path d="M406.203 272.313C405.513 273.599 405.779 278.047 406.09 281.335C406.289 283.428 406.505 285.038 406.505 285.038C406.505 285.038 395.607 288.421 393.957 285.489C393.537 284.745 393.33 283.441 393.258 281.912C393.032 277.402 393.957 270.902 393.957 270.902C393.957 270.902 393.506 260.906 393.28 259.927C393.159 259.399 392.947 254.366 392.78 249.85C392.64 245.998 392.527 242.516 392.527 242.516L407.407 244.816C407.407 244.816 407.407 251.361 407.222 258.087C407.06 264.609 406.758 271.294 406.203 272.313Z" fill="#FBBEBE"/>
<path opacity="0.1" d="M406.505 285.038C406.505 285.038 395.607 288.421 393.957 285.489C393.537 284.745 393.33 283.441 393.258 281.912C395.512 281.569 402.375 280.622 406.09 281.335C406.289 283.428 406.505 285.038 406.505 285.038Z" fill="black"/>
<path d="M406.879 341.873H406.708C405.396 341.922 397.938 341.873 397.938 341.873C397.829 341.758 397.727 341.638 397.631 341.512C396.972 340.686 396.537 339.705 396.367 338.662C396.197 337.619 396.299 336.55 396.662 335.558C398.015 331.854 398.15 325.088 398.15 325.088C398.15 325.088 398.678 323.361 398.227 322.382C397.776 321.403 398.073 319.901 398.073 319.901C398.004 319.307 397.852 318.726 397.622 318.173C397.248 317.271 397.699 315.616 397.699 315.616C397.647 314.012 397.395 312.421 396.946 310.88C396.27 308.927 391.31 285.697 392.514 282.914C392.514 282.914 403.033 281.109 407.019 282.462L406.492 300.505C406.492 300.505 404.611 305.918 406.19 307.348C407.768 308.778 406.266 313.212 406.266 313.212C406.266 313.212 406.041 314.037 407.393 316.82C408.746 319.603 407.393 320.88 407.393 320.88V326.216C407.393 326.216 406.343 329.825 407.542 332.756C408.742 335.688 407.407 341.778 406.879 341.873Z" fill="#3F3D56"/>
<path opacity="0.1" d="M392.171 152.131C398.023 152.131 402.767 147.385 402.767 141.531C402.767 135.677 398.023 130.931 392.171 130.931C386.319 130.931 381.575 135.677 381.575 141.531C381.575 147.385 386.319 152.131 392.171 152.131Z" fill="black"/>
<path d="M392.171 151.68C398.023 151.68 402.767 146.934 402.767 141.08C402.767 135.226 398.023 130.48 392.171 130.48C386.319 130.48 381.575 135.226 381.575 141.08C381.575 146.934 386.319 151.68 392.171 151.68Z" fill="#FBBEBE"/>
<path opacity="0.1" d="M371.204 252.71L386.084 244.816C386.084 244.816 386.084 246.296 386.057 248.574C383.883 249.873 380.605 251.826 377.454 253.671C375.74 254.677 374.067 255.651 372.633 256.467C372.3 256.648 371.952 256.799 371.592 256.919C371.393 254.938 371.204 252.71 371.204 252.71Z" fill="black"/>
<path opacity="0.1" d="M407.407 244.798C407.407 244.798 407.407 251.343 407.222 258.069H407.168C406.056 258.108 404.943 258.074 403.836 257.965C401.893 257.757 400.337 257.243 399.778 256.224C398.646 254.239 395.476 251.713 392.798 249.832C392.658 245.98 392.545 242.498 392.545 242.498L407.407 244.798Z" fill="black"/>
<path d="M404.639 187.472C404.262 190.408 404.189 193.376 404.422 196.327C411.258 201.965 409.982 213.842 409.982 213.842C409.982 213.842 415.244 237.902 414.117 240.08C412.989 242.259 416.669 255.642 416.669 255.642C413.533 256.237 410.357 256.601 407.168 256.734C406.056 256.773 404.943 256.738 403.836 256.63C401.893 256.422 400.337 255.908 399.778 254.889C397.677 251.208 388.582 245.719 388.582 245.719C388.582 245.719 382.82 249.174 377.454 252.318C375.74 253.323 374.068 254.298 372.634 255.114C371.47 255.732 370.184 256.084 368.869 256.147C362.488 256.621 353.989 252.624 355.342 251.208C356.996 249.476 365.189 219.106 365.189 219.106C365.189 219.106 369.32 200.31 372.927 197.68C373.559 197.202 374.031 196.543 374.28 195.79C375.515 192.357 373.45 186.854 373.45 186.854C373.45 186.854 361.803 172.497 362.326 171.667C362.849 170.837 362.854 166.407 362.854 166.407C362.854 166.407 364.283 159.416 365.108 156.033C365.933 152.65 371.872 151.82 373.599 152.122C375.326 152.424 379.23 153.475 380.881 152.122C382.531 150.769 385.318 152.65 385.318 152.65L392.162 154.535L398.317 150.927C398.317 150.927 404.485 151.243 405.013 152.068C405.54 152.894 413.657 154.477 413.657 154.477C417.787 157.255 417.638 170.49 417.638 170.49C417.638 170.49 407.718 179.132 405.689 183.571C405.164 184.817 404.81 186.13 404.639 187.472Z" fill="#575A89"/>
<path d="M415.392 168.658L417.647 170.463L419.978 191.437L422.305 212.488C422.305 212.488 423.206 214.595 423.959 214.369C424.712 214.144 424.636 226.846 424.636 226.846C424.636 226.846 416.006 221.537 412.912 228.587L410.505 211.586C410.505 211.586 407.42 194.22 407.497 192.867C407.574 191.514 405.919 176.854 405.919 176.854L415.392 168.658Z" fill="#575A89"/>
<path d="M363.99 169.637L362.335 171.667C362.335 171.667 362.488 180.386 361.208 182.493C359.927 184.599 364.743 196.927 366.547 196.173C368.35 195.42 372.408 176.178 372.408 175.952C372.408 175.727 363.99 169.637 363.99 169.637Z" fill="#575A89"/>
<path d="M363.841 182.042C363.841 182.042 358.579 187.378 358.953 189.935C359.327 192.493 364.364 200.526 371.578 196.21C371.578 196.21 378.27 183.62 363.841 182.042Z" fill="#575A89"/>
<path opacity="0.1" d="M385.385 341.886C384.073 341.936 376.615 341.886 376.615 341.886C376.506 341.772 376.404 341.651 376.309 341.525C378.216 340.876 382.337 339.901 385.385 341.886Z" fill="black"/>
<path opacity="0.1" d="M406.717 341.886C405.405 341.936 397.947 341.886 397.947 341.886C397.838 341.772 397.736 341.651 397.641 341.525C399.539 340.876 403.66 339.901 406.717 341.886Z" fill="black"/>
<path opacity="0.1" d="M377.986 209.665C376.836 220.698 377.214 242.593 377.453 252.318C375.74 253.324 374.067 254.298 372.633 255.114C371.47 255.732 370.184 256.084 368.868 256.147C368.39 253.206 375.01 222.998 377.986 209.665Z" fill="black"/>
<path opacity="0.1" d="M379.393 203.404C379.361 203.562 378.815 205.962 377.986 209.665C378.31 206.503 378.761 204.234 379.393 203.404Z" fill="black"/>
<path opacity="0.1" d="M397.699 202.213C397.699 202.213 404.088 242.358 385.168 247.32C385.164 247.302 398.258 245.313 397.699 202.213Z" fill="black"/>
<path opacity="0.1" d="M407.168 256.734C406.056 256.773 404.943 256.739 403.836 256.63L398.732 201.74C401.987 203.869 405.883 242.823 407.168 256.734Z" fill="black"/>
<path opacity="0.1" d="M384.281 134.846C384.619 134.819 384.96 134.855 385.286 134.95C385.765 135.189 386.196 135.513 386.558 135.906C387.146 136.398 387.849 136.732 388.601 136.878C389.353 137.024 390.13 136.977 390.859 136.741C391.373 136.511 391.919 136.359 392.478 136.29C393.339 136.29 394.083 136.921 394.53 137.643C394.976 138.365 395.206 139.222 395.589 139.993C395.972 140.764 396.586 141.495 397.429 141.685C397.833 141.7 398.231 141.792 398.601 141.955C398.828 142.14 399.002 142.381 399.106 142.654C399.81 144.174 400.369 145.97 401.87 146.714C402.423 146.97 403.025 147.101 403.633 147.097C404.252 147.143 404.873 147.031 405.437 146.773C405.992 146.462 406.451 146.005 406.762 145.451C407.7 143.899 407.809 141.978 407.588 140.178C407.312 137.908 406.504 135.734 405.229 133.836C403.886 131.916 402.058 130.387 399.931 129.405C397.804 128.423 395.455 128.024 393.123 128.247C392.309 128.339 391.503 128.49 390.71 128.698C387.843 129.465 385.029 130.9 383.289 133.304C382.868 133.904 382.405 134.474 381.904 135.009C382.693 134.932 383.487 134.864 384.281 134.846Z" fill="black"/>
<path d="M384.281 134.395C384.619 134.368 384.96 134.404 385.286 134.499C385.765 134.738 386.196 135.062 386.558 135.455C387.146 135.947 387.849 136.281 388.601 136.427C389.353 136.573 390.13 136.526 390.859 136.29C391.373 136.06 391.919 135.908 392.478 135.839C393.339 135.839 394.083 136.47 394.53 137.192C394.976 137.914 395.206 138.771 395.589 139.542C395.972 140.313 396.586 141.044 397.429 141.233C397.833 141.249 398.231 141.341 398.601 141.504C398.828 141.689 399.002 141.93 399.106 142.203C399.81 143.723 400.369 145.519 401.87 146.263C402.423 146.519 403.025 146.65 403.633 146.646C404.252 146.692 404.873 146.58 405.437 146.322C405.992 146.011 406.451 145.554 406.762 145C407.7 143.448 407.809 141.527 407.588 139.727C407.312 137.457 406.504 135.283 405.229 133.385C403.886 131.465 402.058 129.936 399.931 128.954C397.804 127.972 395.455 127.572 393.123 127.796C392.309 127.888 391.503 128.039 390.71 128.247C387.843 129.014 385.029 130.448 383.289 132.853C382.868 133.453 382.405 134.023 381.904 134.558C382.693 134.481 383.487 134.413 384.281 134.395Z" fill="#3F3D56"/>
<path opacity="0.1" d="M372.783 159.637C372.783 159.637 373.31 163.85 371.506 164.901C369.703 165.952 372.783 159.637 372.783 159.637Z" fill="black"/>
<path opacity="0.1" d="M411.032 192.267C411.032 192.267 415.316 185.952 415.92 187.756C416.524 189.561 411.032 192.267 411.032 192.267Z" fill="black"/>
<path opacity="0.1" d="M411.334 194.369C411.334 194.369 415.559 189.182 415.965 191.212C416.371 193.241 411.334 194.369 411.334 194.369Z" fill="black"/>
<path opacity="0.1" d="M398.925 188.194C397.393 188.216 395.898 187.723 394.678 186.796H394.308C393.043 187.952 391.382 188.577 389.668 188.541C388.778 188.562 387.892 188.402 387.065 188.07C386.238 187.738 385.487 187.242 384.857 186.611H384.366C383.068 187.669 381.437 188.232 379.763 188.201C378.089 188.171 376.48 187.548 375.222 186.444L373.458 186.412C373.458 186.412 375.524 191.915 374.288 195.348L404.422 195.885C404.189 192.934 404.261 189.966 404.638 187.03V186.99L402.983 186.958C401.793 187.784 400.374 188.216 398.925 188.194Z" fill="black"/>
<path opacity="0.1" d="M398.925 189.096C397.393 189.118 395.898 188.626 394.678 187.698H394.308C393.043 188.854 391.382 189.479 389.668 189.443C388.778 189.464 387.892 189.304 387.065 188.972C386.238 188.64 385.487 188.144 384.857 187.513H384.366C383.068 188.571 381.437 189.134 379.763 189.104C378.089 189.073 376.48 188.45 375.222 187.346L373.458 187.314C373.458 187.314 375.524 192.817 374.288 196.25L404.422 196.787C404.189 193.836 404.261 190.869 404.638 187.932V187.892L402.983 187.86C401.793 188.686 400.374 189.118 398.925 189.096Z" fill="black"/>
<path d="M398.925 188.645C397.393 188.667 395.898 188.175 394.678 187.247H394.308C393.043 188.403 391.382 189.028 389.668 188.992C388.778 189.013 387.892 188.853 387.065 188.521C386.238 188.189 385.487 187.693 384.857 187.062H384.366C383.068 188.12 381.437 188.683 379.763 188.653C378.089 188.622 376.48 187.999 375.222 186.895L373.458 186.863C373.458 186.863 375.524 192.366 374.288 195.799L404.422 196.336C404.189 193.385 404.261 190.417 404.638 187.481V187.441L402.983 187.409C401.793 188.235 400.374 188.667 398.925 188.645Z" fill="#3F3D56"/>
<path opacity="0.1" d="M397.586 158.568C397.586 158.568 403.931 158.974 403.971 159.876C404.012 160.778 397.586 158.568 397.586 158.568Z" fill="black"/>
<path opacity="0.1" d="M382.175 154.72C382.175 154.72 375.83 155.126 375.79 156.029C375.749 156.931 382.175 154.72 382.175 154.72Z" fill="black"/>
<path opacity="0.1" d="M406.42 173.165C406.357 173.119 406.294 173.083 406.23 173.043C407.854 174.504 407.583 177.698 405.59 180.332C403.597 182.966 400.572 184.062 398.732 182.88C398.791 182.93 398.84 182.984 398.903 183.034C400.707 184.414 403.863 183.332 405.946 180.607C408.029 177.883 408.232 174.549 406.42 173.165Z" fill="black"/>
<path opacity="0.1" d="M371.569 179.994C369.964 177.098 370.172 173.9 371.989 172.686C371.921 172.718 371.849 172.745 371.781 172.781C369.788 173.891 369.527 177.215 371.177 180.21C372.827 183.205 375.803 184.721 377.796 183.629C377.862 183.591 377.925 183.549 377.986 183.503C375.997 184.405 373.175 182.89 371.569 179.994Z" fill="black"/>
<path opacity="0.1" d="M373.716 155.573L373.134 156.475L371.65 155.686L372.43 154.486C372.946 154.73 373.389 155.105 373.716 155.573Z" fill="black"/>
<path d="M364.292 188.956C364.292 188.956 365.613 182.741 363.841 180.765C362.069 178.789 362.637 168.433 365.342 168.658C368.048 168.884 372.106 177.075 371.43 178.807C370.753 180.539 368.197 189.407 368.197 189.407L364.292 188.956Z" fill="#FBBEBE"/>
<path opacity="0.1" d="M406.717 144.111C406.405 144.665 405.946 145.123 405.391 145.433C404.827 145.691 404.207 145.803 403.588 145.758C402.979 145.761 402.377 145.63 401.825 145.374C400.323 144.625 399.764 142.83 399.061 141.315C398.972 141.041 398.813 140.796 398.601 140.602C398.236 140.436 397.843 140.339 397.442 140.318C396.599 140.128 395.99 139.393 395.602 138.626C395.215 137.859 394.985 137.011 394.543 136.276C394.101 135.541 393.352 134.896 392.491 134.923C391.931 134.997 391.385 135.157 390.872 135.397C390.143 135.631 389.366 135.677 388.614 135.53C387.862 135.383 387.159 135.049 386.571 134.558C386.209 134.164 385.778 133.84 385.299 133.601C384.973 133.506 384.632 133.471 384.294 133.498C383.775 133.498 383.261 133.547 382.743 133.588C382.486 133.925 382.21 134.247 381.917 134.553C382.707 134.486 383.5 134.418 384.294 134.4C384.632 134.373 384.973 134.408 385.299 134.504C385.778 134.742 386.209 135.066 386.571 135.46C387.159 135.951 387.862 136.286 388.614 136.432C389.366 136.579 390.143 136.533 390.872 136.299C391.385 136.059 391.931 135.9 392.491 135.825C393.352 135.825 394.096 136.457 394.543 137.178C394.989 137.9 395.219 138.757 395.602 139.528C395.986 140.3 396.599 141.03 397.442 141.22C397.843 141.242 398.236 141.338 398.601 141.504C398.828 141.689 399.002 141.93 399.106 142.203C399.809 143.723 400.368 145.519 401.87 146.263C402.422 146.519 403.024 146.65 403.633 146.646C404.252 146.692 404.872 146.58 405.437 146.321C405.992 146.011 406.45 145.554 406.762 145C407.462 143.725 407.776 142.273 407.664 140.823C407.63 141.981 407.304 143.112 406.717 144.111Z" fill="black"/>
<path d="M366.289 193.887C368.53 193.887 370.347 192.655 370.347 191.135C370.347 189.615 368.53 188.384 366.289 188.384C364.048 188.384 362.231 189.615 362.231 191.135C362.231 192.655 364.048 193.887 366.289 193.887Z" fill="#575A89"/>
<path d="M234.013 344.295C310.837 344.295 373.116 281.993 373.116 205.141C373.116 128.288 310.837 65.9866 234.013 65.9866C157.189 65.9866 94.9102 128.288 94.9102 205.141C94.9102 281.993 157.189 344.295 234.013 344.295Z" fill="#FF4D29"/>
<path d="M307.001 275.07C307.001 297.036 272.48 276.946 235.47 276.946C198.46 276.946 161.026 296.207 161.026 274.24C161.026 261.713 172.957 244.293 190.073 231.641C202.969 222.105 218.804 215.276 234.712 215.276C251.071 215.276 267.096 222.669 279.879 232.818C296.012 245.615 307.001 262.81 307.001 275.07Z" fill="#444053"/>
<path d="M279.874 232.809C260.201 229.846 224.621 226.233 190.073 231.632C202.969 222.096 218.804 215.267 234.712 215.267C251.066 215.267 267.091 222.66 279.874 232.809Z" fill="#F6F8FB"/>
<path opacity="0.05" d="M161.025 106.912C161.025 106.912 119.123 133.71 119.466 175.627C119.809 217.545 161.025 106.912 161.025 106.912Z" fill="black"/>
<path d="M373.062 31.2274C373.062 31.2274 335.096 28.9405 339.574 55.5534C339.574 55.5534 338.672 60.2536 342.946 62.3916C342.946 62.3916 343.014 60.4204 346.838 61.088C348.2 61.3161 349.585 61.3827 350.963 61.2865C352.826 61.1598 354.596 60.4281 356.004 59.2026C356.004 59.2026 366.677 54.7956 370.83 37.3439C370.83 37.3439 373.901 33.5369 373.779 32.5626L367.372 35.296C367.372 35.296 369.558 39.9195 367.822 43.7626C367.822 43.7626 367.615 35.4674 366.384 35.6434C366.136 35.684 363.056 37.2446 363.056 37.2446C363.056 37.2446 366.821 45.3007 363.958 51.151C363.958 51.151 365.036 41.2276 361.857 37.8265L357.348 40.4608C357.348 40.4608 361.749 48.7784 358.764 55.567C358.764 55.567 359.53 45.1564 356.401 41.1013L352.312 44.2903C352.312 44.2903 356.446 52.4907 353.926 58.12C353.926 58.12 353.597 45.9999 351.428 45.0842C351.428 45.0842 347.852 48.2416 347.307 49.5362C347.307 49.5362 350.138 55.4858 348.384 58.6252C348.384 58.6252 347.307 50.5511 346.423 50.506C346.423 50.506 342.861 55.8557 342.486 59.5273C342.486 59.5273 342.644 54.0694 345.557 49.9963C345.557 49.9963 342.112 50.5872 340.106 52.8245C340.106 52.8245 340.66 49.04 346.418 48.7108C346.418 48.7108 349.363 44.6512 350.152 44.4076C350.152 44.4076 344.403 43.9249 340.917 45.4721C340.917 45.4721 343.983 41.9042 351.202 43.5235L355.26 40.2307C355.26 40.2307 347.694 39.1933 344.484 40.339C344.484 40.339 348.177 37.1815 356.347 39.4819L360.743 36.8522C360.743 36.8522 354.291 35.4629 350.445 35.9501C350.445 35.9501 354.503 33.7624 362.028 36.135L365.185 34.7232C365.185 34.7232 360.455 33.794 359.071 33.6496C357.686 33.5053 357.614 33.1174 357.614 33.1174C360.618 32.6288 363.698 32.9865 366.51 34.1503C366.51 34.1503 373.175 31.6469 373.062 31.2274Z" fill="#FF4D29"/>
<path d="M334.122 19.3959C334.122 19.3959 316.988 18.3584 318.99 30.3839C318.99 30.3839 318.589 32.5084 320.514 33.4737C320.514 33.4737 320.541 32.5715 322.272 32.8873C322.888 32.9886 323.512 33.0188 324.135 32.9775C324.977 32.9174 325.777 32.5867 326.416 32.0348C326.416 32.0348 331.236 30.0411 333.112 22.1564C333.112 22.1564 334.501 20.4378 334.465 19.9958L331.57 21.2317C331.57 21.2317 332.562 23.3202 331.782 25.0568C331.782 25.0568 331.687 21.3084 331.133 21.3986C331.02 21.3986 329.627 22.1203 329.627 22.1203C329.627 22.1203 331.331 25.7604 330.046 28.4037C330.046 28.4037 330.533 23.9201 329.099 22.3819L327.061 23.5728C327.061 23.5728 329.049 27.3347 327.701 30.4019C327.701 30.4019 328.044 25.6973 326.633 23.8659L324.784 25.3049C324.784 25.3049 326.651 29.0081 325.514 31.5521C325.514 31.5521 325.366 26.0762 324.383 25.6612C324.383 25.6612 322.768 27.0866 322.52 27.673C322.52 27.673 323.801 30.3794 323.007 31.7822C323.007 31.7822 322.52 28.133 322.106 28.1195C322.106 28.1195 320.496 30.5327 320.329 32.1791C320.407 30.6469 320.884 29.1618 321.713 27.8714C320.786 28.047 319.93 28.4908 319.251 29.1479C319.251 29.1479 319.499 27.4384 322.11 27.2895C322.11 27.2895 323.44 25.4582 323.796 25.3454C323.796 25.3454 321.199 25.1289 319.626 25.8281C319.626 25.8281 321.01 24.2133 324.274 24.926L326.078 23.4419C326.078 23.4419 322.66 22.9909 321.208 23.4871C321.208 23.4871 322.877 22.0617 326.569 23.1036L328.553 21.9128C328.553 21.9128 325.641 21.2858 323.9 21.5114C323.9 21.5114 325.735 20.5235 329.135 21.5971L330.555 20.9566C330.555 20.9566 328.418 20.5371 327.796 20.4739C327.174 20.4108 327.133 20.2349 327.133 20.2349C328.487 20.0096 329.876 20.1658 331.146 20.6859C331.146 20.6859 334.172 19.5853 334.122 19.3959Z" fill="#FF4D29"/>
<path opacity="0.1" d="M483.857 329.283C490.563 329.283 496 328.364 496 327.231C496 326.097 490.563 325.178 483.857 325.178C477.151 325.178 471.714 326.097 471.714 327.231C471.714 328.364 477.151 329.283 483.857 329.283Z" fill="#FF4D29"/>
<path opacity="0.1" d="M21.0886 363.424C27.7948 363.424 33.2313 362.506 33.2313 361.372C33.2313 360.239 27.7948 359.32 21.0886 359.32C14.3823 359.32 8.9458 360.239 8.9458 361.372C8.9458 362.506 14.3823 363.424 21.0886 363.424Z" fill="#FF4D29"/>
<path opacity="0.1" d="M91.5778 366C98.2841 366 103.721 365.081 103.721 363.948C103.721 362.814 98.2841 361.895 91.5778 361.895C84.8716 361.895 79.4351 362.814 79.4351 363.948C79.4351 365.081 84.8716 366 91.5778 366Z" fill="#FF4D29"/>
<path d="M457.281 352.292C467.294 352.292 475.412 350.919 475.412 349.225C475.412 347.531 467.294 346.158 457.281 346.158C447.268 346.158 439.15 347.531 439.15 349.225C439.15 350.919 447.268 352.292 457.281 352.292Z" fill="#FF4D29"/>
<path d="M464.775 344.213C465.603 343.538 466.206 342.627 466.507 341.602C466.728 340.569 466.286 339.324 465.298 338.945C464.189 338.521 463.003 339.292 462.106 340.068C461.209 340.844 460.176 341.728 458.999 341.566C459.604 341.018 460.057 340.322 460.313 339.546C460.569 338.77 460.62 337.942 460.46 337.141C460.409 336.809 460.269 336.497 460.054 336.239C459.437 335.58 458.323 335.86 457.583 336.378C455.239 338.029 454.585 341.214 454.571 344.083C454.337 343.05 454.535 341.972 454.531 340.925C454.526 339.879 454.233 338.67 453.34 338.115C452.786 337.819 452.165 337.673 451.537 337.691C450.482 337.65 449.309 337.754 448.588 338.526C447.686 339.486 447.925 341.092 448.705 342.134C449.485 343.176 450.667 343.853 451.753 344.579C452.628 345.099 453.374 345.81 453.936 346.658C454.001 346.778 454.056 346.903 454.098 347.033H460.704C462.182 346.281 463.551 345.333 464.775 344.213Z" fill="#FF4D29"/>
<path d="M26.7563 306.392C26.7563 306.392 29.2318 309.63 25.611 314.511C21.9903 319.391 19.0053 323.532 20.2002 326.581C20.2002 326.581 25.6606 317.497 30.12 317.366C34.5795 317.235 31.6441 311.854 26.7563 306.392Z" fill="#FF4D29"/>
<path opacity="0.1" d="M26.7565 306.392C26.9714 306.705 27.1414 307.046 27.2615 307.407C31.5991 312.504 33.9077 317.262 29.7414 317.38C25.8547 317.492 21.1743 324.439 20.0786 326.193C20.1169 326.329 20.1621 326.463 20.2139 326.595C20.2139 326.595 25.6743 317.51 30.1337 317.38C34.5931 317.249 31.6442 311.854 26.7565 306.392Z" fill="black"/>
<path d="M31.3602 310.519C31.3602 311.66 31.2295 312.585 31.0717 312.585C30.9139 312.585 30.7876 311.683 30.7876 310.519C30.7876 309.355 30.9454 309.914 31.1077 309.914C31.2701 309.914 31.3602 309.378 31.3602 310.519Z" fill="#FFD037"/>
<path d="M32.9201 311.881C31.9191 312.427 31.0488 312.756 30.9722 312.616C30.8955 312.476 31.6485 311.926 32.6495 311.38C33.6505 310.835 33.2537 311.232 33.3304 311.38C33.407 311.529 33.9391 311.335 32.9201 311.881Z" fill="#FFD037"/>
<path d="M13.6715 306.392C13.6715 306.392 11.196 309.63 14.8122 314.511C18.4285 319.391 21.4179 323.532 20.223 326.581C20.223 326.581 14.7581 317.497 10.3032 317.366C5.84833 317.235 8.77919 311.854 13.6715 306.392Z" fill="#FF4D29"/>
<path opacity="0.1" d="M13.6712 306.392C13.4542 306.703 13.2841 307.045 13.1662 307.407C8.82849 312.504 6.51537 317.262 10.6862 317.38C14.5685 317.492 19.2533 324.439 20.3445 326.193C20.3077 326.329 20.2641 326.463 20.2137 326.595C20.2137 326.595 14.7488 317.51 10.2939 317.38C5.83901 317.249 8.77889 311.854 13.6712 306.392Z" fill="black"/>
<path d="M9.06738 310.519C9.06738 311.66 9.19364 312.585 9.35145 312.585C9.50927 312.585 9.63552 311.683 9.63552 310.519C9.63552 309.355 9.4777 309.914 9.31989 309.914C9.16207 309.914 9.06738 309.378 9.06738 310.519Z" fill="#FFD037"/>
<path d="M7.48491 311.881C8.48591 312.427 9.36066 312.756 9.43732 312.616C9.51397 312.476 8.76096 311.926 7.75996 311.38C6.75896 310.835 7.15125 311.232 7.07911 311.38C7.00696 311.529 6.48391 311.335 7.48491 311.881Z" fill="#FFD037"/>
<path d="M9.85693 326.171C9.85693 326.171 16.7828 325.959 18.875 324.47C20.9671 322.982 29.5297 321.209 30.0483 323.568C30.5668 325.927 40.4551 335.431 32.6365 335.494C24.8178 335.557 14.4697 334.272 12.3865 333.004C10.3033 331.737 9.85693 326.171 9.85693 326.171Z" fill="#A8A8A8"/>
<path opacity="0.2" d="M32.7672 334.687C24.9486 334.75 14.6004 333.465 12.5172 332.197C10.9301 331.232 10.2988 327.763 10.0869 326.162H9.85693C9.85693 326.162 10.3078 331.751 12.3775 333.018C14.4471 334.286 24.8088 335.571 32.6274 335.508C34.8819 335.508 35.662 334.683 35.6214 333.496C35.3058 334.222 34.4491 334.674 32.7672 334.687Z" fill="black"/>
<path d="M184.558 186.895C187.205 186.746 199.664 185.808 207.577 181.293C208.848 180.545 210.283 180.122 211.757 180.061C214.273 179.989 217.168 181.04 215.314 186.922C212.311 196.543 194.875 207.369 184.053 206.769C173.647 206.192 161.301 201.997 153.149 187.247C152.368 185.828 151.983 184.224 152.035 182.605C152.13 179.628 153.212 175.898 158.798 180.057C166.347 185.673 180.667 186.737 183.539 186.895C183.879 186.913 184.219 186.913 184.558 186.895Z" fill="#444053"/>
<path d="M284.658 186.895C287.305 186.746 299.763 185.808 307.677 181.293C308.947 180.545 310.383 180.122 311.856 180.061C314.372 179.989 317.267 181.04 315.414 186.922C312.411 196.543 294.975 207.369 284.153 206.769C273.746 206.192 261.401 201.997 253.248 187.247C252.467 185.828 252.082 184.224 252.135 182.605C252.229 179.628 253.311 175.898 258.898 180.057C266.446 185.673 280.767 186.737 283.639 186.895C283.978 186.913 284.319 186.913 284.658 186.895Z" fill="#444053"/>
</g>
<defs>
<linearGradient id="paint0_linear" x1="402.267" y1="341.904" x2="402.267" y2="119.059" gradientUnits="userSpaceOnUse">
<stop stop-color="#808080" stop-opacity="0.25"/>
<stop offset="0.54" stop-color="#808080" stop-opacity="0.12"/>
<stop offset="1" stop-color="#808080" stop-opacity="0.1"/>
</linearGradient>
<clipPath id="clip0">
<rect width="496" height="366" fill="white"/>
</clipPath>
</defs>
</svg>
